<mxfile host="app.diagrams.net" modified="2023-05-08T09:15:29.666Z" agent="Mozilla/5.0 (Macintosh; Intel Mac OS X 10_15_7) AppleWebKit/537.36 (KHTML, like Gecko) Chrome/112.0.0.0 Safari/537.36" etag="Um2BPMiR_5IzVtNy6sOy" version="21.2.9" type="github" pages="2">
  <diagram id="C5RBs43oDa-KdzZeNtuy" name="Page-1">
    <mxGraphModel dx="1050" dy="582" grid="0" gridSize="10" guides="1" tooltips="1" connect="1" arrows="1" fold="1" page="1" pageScale="1" pageWidth="827" pageHeight="1169" math="0" shadow="0">
      <root>
        <mxCell id="WIyWlLk6GJQsqaUBKTNV-0" />
        <mxCell id="WIyWlLk6GJQsqaUBKTNV-1" parent="WIyWlLk6GJQsqaUBKTNV-0" />
        <mxCell id="Nr7kIT6_98lTkHRtGs4z-55" style="edgeStyle=orthogonalEdgeStyle;rounded=0;orthogonalLoop=1;jettySize=auto;html=1;exitX=0.5;exitY=0;exitDx=0;exitDy=0;entryX=0.5;entryY=1;entryDx=0;entryDy=0;endArrow=block;endFill=0;" parent="WIyWlLk6GJQsqaUBKTNV-1" source="zkfFHV4jXpPFQw0GAbJ--0" target="Nr7kIT6_98lTkHRtGs4z-47" edge="1">
          <mxGeometry relative="1" as="geometry" />
        </mxCell>
        <mxCell id="zkfFHV4jXpPFQw0GAbJ--0" value="TextView" style="swimlane;fontStyle=0;align=center;verticalAlign=top;childLayout=stackLayout;horizontal=1;startSize=26;horizontalStack=0;resizeParent=1;resizeLast=0;collapsible=1;marginBottom=0;rounded=0;shadow=0;strokeWidth=1;" parent="WIyWlLk6GJQsqaUBKTNV-1" vertex="1">
          <mxGeometry x="146" y="459" width="160" height="68" as="geometry">
            <mxRectangle x="146" y="459" width="160" height="26" as="alternateBounds" />
          </mxGeometry>
        </mxCell>
        <mxCell id="zkfFHV4jXpPFQw0GAbJ--4" value="" style="line;html=1;strokeWidth=1;align=left;verticalAlign=middle;spacingTop=-1;spacingLeft=3;spacingRight=3;rotatable=0;labelPosition=right;points=[];portConstraint=eastwest;" parent="zkfFHV4jXpPFQw0GAbJ--0" vertex="1">
          <mxGeometry y="26" width="160" height="8" as="geometry" />
        </mxCell>
        <mxCell id="zkfFHV4jXpPFQw0GAbJ--5" value="display()" style="text;align=left;verticalAlign=top;spacingLeft=4;spacingRight=4;overflow=hidden;rotatable=0;points=[[0,0.5],[1,0.5]];portConstraint=eastwest;" parent="zkfFHV4jXpPFQw0GAbJ--0" vertex="1">
          <mxGeometry y="34" width="160" height="26" as="geometry" />
        </mxCell>
        <mxCell id="Nr7kIT6_98lTkHRtGs4z-57" style="edgeStyle=orthogonalEdgeStyle;rounded=0;orthogonalLoop=1;jettySize=auto;html=1;exitX=0.5;exitY=1;exitDx=0;exitDy=0;entryX=0.5;entryY=0;entryDx=0;entryDy=0;endArrow=open;endFill=0;" parent="WIyWlLk6GJQsqaUBKTNV-1" source="Nr7kIT6_98lTkHRtGs4z-5" target="Nr7kIT6_98lTkHRtGs4z-47" edge="1">
          <mxGeometry relative="1" as="geometry" />
        </mxCell>
        <mxCell id="Nr7kIT6_98lTkHRtGs4z-5" value="Window" style="swimlane;fontStyle=0;align=center;verticalAlign=top;childLayout=stackLayout;horizontal=1;startSize=26;horizontalStack=0;resizeParent=1;resizeLast=0;collapsible=1;marginBottom=0;rounded=0;shadow=0;strokeWidth=1;" parent="WIyWlLk6GJQsqaUBKTNV-1" vertex="1">
          <mxGeometry x="253" y="68" width="209" height="138" as="geometry">
            <mxRectangle x="154" y="67" width="160" height="26" as="alternateBounds" />
          </mxGeometry>
        </mxCell>
        <mxCell id="Nr7kIT6_98lTkHRtGs4z-6" value="viewMap: Hashmap&lt;String, View&gt;" style="text;align=left;verticalAlign=top;spacingLeft=4;spacingRight=4;overflow=hidden;rotatable=0;points=[[0,0.5],[1,0.5]];portConstraint=eastwest;" parent="Nr7kIT6_98lTkHRtGs4z-5" vertex="1">
          <mxGeometry y="26" width="209" height="26" as="geometry" />
        </mxCell>
        <mxCell id="Nr7kIT6_98lTkHRtGs4z-63" value="" style="line;html=1;strokeWidth=1;align=left;verticalAlign=middle;spacingTop=-1;spacingLeft=3;spacingRight=3;rotatable=0;labelPosition=right;points=[];portConstraint=eastwest;" parent="Nr7kIT6_98lTkHRtGs4z-5" vertex="1">
          <mxGeometry y="52" width="209" height="8" as="geometry" />
        </mxCell>
        <mxCell id="Nr7kIT6_98lTkHRtGs4z-62" value="attach(View)" style="text;align=left;verticalAlign=top;spacingLeft=4;spacingRight=4;overflow=hidden;rotatable=0;points=[[0,0.5],[1,0.5]];portConstraint=eastwest;" parent="Nr7kIT6_98lTkHRtGs4z-5" vertex="1">
          <mxGeometry y="60" width="209" height="26" as="geometry" />
        </mxCell>
        <mxCell id="Nr7kIT6_98lTkHRtGs4z-64" value="detach(View)" style="text;align=left;verticalAlign=top;spacingLeft=4;spacingRight=4;overflow=hidden;rotatable=0;points=[[0,0.5],[1,0.5]];portConstraint=eastwest;" parent="Nr7kIT6_98lTkHRtGs4z-5" vertex="1">
          <mxGeometry y="86" width="209" height="26" as="geometry" />
        </mxCell>
        <mxCell id="Nr7kIT6_98lTkHRtGs4z-65" value="display()" style="text;align=left;verticalAlign=top;spacingLeft=4;spacingRight=4;overflow=hidden;rotatable=0;points=[[0,0.5],[1,0.5]];portConstraint=eastwest;" parent="Nr7kIT6_98lTkHRtGs4z-5" vertex="1">
          <mxGeometry y="112" width="209" height="26" as="geometry" />
        </mxCell>
        <mxCell id="Nr7kIT6_98lTkHRtGs4z-56" style="edgeStyle=orthogonalEdgeStyle;rounded=0;orthogonalLoop=1;jettySize=auto;html=1;exitX=0.5;exitY=0;exitDx=0;exitDy=0;entryX=0.5;entryY=1;entryDx=0;entryDy=0;endArrow=block;endFill=0;" parent="WIyWlLk6GJQsqaUBKTNV-1" source="Nr7kIT6_98lTkHRtGs4z-14" target="Nr7kIT6_98lTkHRtGs4z-47" edge="1">
          <mxGeometry relative="1" as="geometry" />
        </mxCell>
        <mxCell id="Nr7kIT6_98lTkHRtGs4z-14" value="OtherView" style="swimlane;fontStyle=0;align=center;verticalAlign=top;childLayout=stackLayout;horizontal=1;startSize=26;horizontalStack=0;resizeParent=1;resizeLast=0;collapsible=1;marginBottom=0;rounded=0;shadow=0;strokeWidth=1;" parent="WIyWlLk6GJQsqaUBKTNV-1" vertex="1">
          <mxGeometry x="440.5" y="459" width="160" height="68" as="geometry">
            <mxRectangle x="440.5" y="459" width="160" height="26" as="alternateBounds" />
          </mxGeometry>
        </mxCell>
        <mxCell id="Nr7kIT6_98lTkHRtGs4z-18" value="" style="line;html=1;strokeWidth=1;align=left;verticalAlign=middle;spacingTop=-1;spacingLeft=3;spacingRight=3;rotatable=0;labelPosition=right;points=[];portConstraint=eastwest;" parent="Nr7kIT6_98lTkHRtGs4z-14" vertex="1">
          <mxGeometry y="26" width="160" height="8" as="geometry" />
        </mxCell>
        <mxCell id="Nr7kIT6_98lTkHRtGs4z-19" value="display()" style="text;align=left;verticalAlign=top;spacingLeft=4;spacingRight=4;overflow=hidden;rotatable=0;points=[[0,0.5],[1,0.5]];portConstraint=eastwest;" parent="Nr7kIT6_98lTkHRtGs4z-14" vertex="1">
          <mxGeometry y="34" width="160" height="26" as="geometry" />
        </mxCell>
        <mxCell id="Nr7kIT6_98lTkHRtGs4z-47" value="View" style="swimlane;fontStyle=2;align=center;verticalAlign=top;childLayout=stackLayout;horizontal=1;startSize=26;horizontalStack=0;resizeParent=1;resizeLast=0;collapsible=1;marginBottom=0;rounded=0;shadow=0;strokeWidth=1;" parent="WIyWlLk6GJQsqaUBKTNV-1" vertex="1">
          <mxGeometry x="223" y="228" width="269" height="190" as="geometry">
            <mxRectangle x="496" y="61" width="160" height="26" as="alternateBounds" />
          </mxGeometry>
        </mxCell>
        <mxCell id="Nr7kIT6_98lTkHRtGs4z-49" value="data: String" style="text;align=left;verticalAlign=top;spacingLeft=4;spacingRight=4;overflow=hidden;rotatable=0;points=[[0,0.5],[1,0.5]];portConstraint=eastwest;" parent="Nr7kIT6_98lTkHRtGs4z-47" vertex="1">
          <mxGeometry y="26" width="269" height="26" as="geometry" />
        </mxCell>
        <mxCell id="Nr7kIT6_98lTkHRtGs4z-50" value="scrollbar: bool" style="text;align=left;verticalAlign=top;spacingLeft=4;spacingRight=4;overflow=hidden;rotatable=0;points=[[0,0.5],[1,0.5]];portConstraint=eastwest;" parent="Nr7kIT6_98lTkHRtGs4z-47" vertex="1">
          <mxGeometry y="52" width="269" height="26" as="geometry" />
        </mxCell>
        <mxCell id="8oCk5UZZGJ-4rx8mma52-0" value="thickBlackBorder: bool" style="text;align=left;verticalAlign=top;spacingLeft=4;spacingRight=4;overflow=hidden;rotatable=0;points=[[0,0.5],[1,0.5]];portConstraint=eastwest;" vertex="1" parent="Nr7kIT6_98lTkHRtGs4z-47">
          <mxGeometry y="78" width="269" height="26" as="geometry" />
        </mxCell>
        <mxCell id="Nr7kIT6_98lTkHRtGs4z-51" value="" style="line;html=1;strokeWidth=1;align=left;verticalAlign=middle;spacingTop=-1;spacingLeft=3;spacingRight=3;rotatable=0;labelPosition=right;points=[];portConstraint=eastwest;" parent="Nr7kIT6_98lTkHRtGs4z-47" vertex="1">
          <mxGeometry y="104" width="269" height="8" as="geometry" />
        </mxCell>
        <mxCell id="Nr7kIT6_98lTkHRtGs4z-52" value="display()" style="text;align=left;verticalAlign=top;spacingLeft=4;spacingRight=4;overflow=hidden;rotatable=0;points=[[0,0.5],[1,0.5]];portConstraint=eastwest;" parent="Nr7kIT6_98lTkHRtGs4z-47" vertex="1">
          <mxGeometry y="112" width="269" height="26" as="geometry" />
        </mxCell>
        <mxCell id="Nr7kIT6_98lTkHRtGs4z-53" value="setScrollbar(scrollbar: bool)" style="text;align=left;verticalAlign=top;spacingLeft=4;spacingRight=4;overflow=hidden;rotatable=0;points=[[0,0.5],[1,0.5]];portConstraint=eastwest;" parent="Nr7kIT6_98lTkHRtGs4z-47" vertex="1">
          <mxGeometry y="138" width="269" height="26" as="geometry" />
        </mxCell>
        <mxCell id="Nr7kIT6_98lTkHRtGs4z-54" value="setThickBlackBorder(thickBlackBorder: bool)" style="text;align=left;verticalAlign=top;spacingLeft=4;spacingRight=4;overflow=hidden;rotatable=0;points=[[0,0.5],[1,0.5]];portConstraint=eastwest;" parent="Nr7kIT6_98lTkHRtGs4z-47" vertex="1">
          <mxGeometry y="164" width="269" height="26" as="geometry" />
        </mxCell>
        <mxCell id="Nr7kIT6_98lTkHRtGs4z-60" style="edgeStyle=orthogonalEdgeStyle;rounded=0;orthogonalLoop=1;jettySize=auto;html=1;exitX=0.5;exitY=1;exitDx=0;exitDy=0;entryX=0.5;entryY=1;entryDx=0;entryDy=0;endArrow=open;endFill=0;" parent="WIyWlLk6GJQsqaUBKTNV-1" source="Nr7kIT6_98lTkHRtGs4z-58" target="zkfFHV4jXpPFQw0GAbJ--0" edge="1">
          <mxGeometry relative="1" as="geometry" />
        </mxCell>
        <mxCell id="Nr7kIT6_98lTkHRtGs4z-61" style="edgeStyle=orthogonalEdgeStyle;rounded=0;orthogonalLoop=1;jettySize=auto;html=1;exitX=0.5;exitY=1;exitDx=0;exitDy=0;entryX=0.5;entryY=1;entryDx=0;entryDy=0;endArrow=open;endFill=0;" parent="WIyWlLk6GJQsqaUBKTNV-1" source="Nr7kIT6_98lTkHRtGs4z-58" target="Nr7kIT6_98lTkHRtGs4z-14" edge="1">
          <mxGeometry relative="1" as="geometry" />
        </mxCell>
        <mxCell id="Nr7kIT6_98lTkHRtGs4z-58" value="User" style="html=1;whiteSpace=wrap;" parent="WIyWlLk6GJQsqaUBKTNV-1" vertex="1">
          <mxGeometry x="23" y="244" width="110" height="50" as="geometry" />
        </mxCell>
        <mxCell id="Nr7kIT6_98lTkHRtGs4z-66" value="for each element in views{&lt;br&gt;views[i].display();&lt;br&gt;&lt;div style=&quot;text-align: left;&quot;&gt;&lt;span style=&quot;background-color: initial;&quot;&gt;}&lt;/span&gt;&lt;/div&gt;" style="shape=note2;boundedLbl=1;whiteSpace=wrap;html=1;size=25;verticalAlign=top;align=center;" parent="WIyWlLk6GJQsqaUBKTNV-1" vertex="1">
          <mxGeometry x="522" y="146" width="163" height="94" as="geometry" />
        </mxCell>
        <mxCell id="Nr7kIT6_98lTkHRtGs4z-67" style="edgeStyle=orthogonalEdgeStyle;rounded=0;orthogonalLoop=1;jettySize=auto;html=1;exitX=1;exitY=0.5;exitDx=0;exitDy=0;entryX=0;entryY=0.5;entryDx=0;entryDy=0;entryPerimeter=0;endArrow=none;endFill=0;dashed=1;" parent="WIyWlLk6GJQsqaUBKTNV-1" source="Nr7kIT6_98lTkHRtGs4z-65" target="Nr7kIT6_98lTkHRtGs4z-66" edge="1">
          <mxGeometry relative="1" as="geometry" />
        </mxCell>
      </root>
    </mxGraphModel>
  </diagram>
  <diagram id="vAjh1-kpttKeQfAkNRWy" name="Page-2">
    <mxGraphModel dx="1050" dy="582" grid="0" gridSize="10" guides="1" tooltips="1" connect="1" arrows="1" fold="1" page="1" pageScale="1" pageWidth="850" pageHeight="1100" math="0" shadow="0">
      <root>
        <mxCell id="0" />
        <mxCell id="1" parent="0" />
        <mxCell id="zVzabeeGuO9zUwi2U8Y--5" style="edgeStyle=orthogonalEdgeStyle;rounded=0;orthogonalLoop=1;jettySize=auto;html=1;exitX=0;exitY=0.5;exitDx=0;exitDy=0;entryX=1;entryY=0.5;entryDx=0;entryDy=0;endArrow=open;endFill=0;" edge="1" parent="1" source="3pwNJCAhdrO7_ArIFokz-1" target="zVzabeeGuO9zUwi2U8Y--1">
          <mxGeometry relative="1" as="geometry" />
        </mxCell>
        <mxCell id="iTp6Qkr-tG074nf6BBxL-9" style="edgeStyle=orthogonalEdgeStyle;rounded=0;orthogonalLoop=1;jettySize=auto;html=1;exitX=0;exitY=0.5;exitDx=0;exitDy=0;entryX=1;entryY=0.5;entryDx=0;entryDy=0;" edge="1" parent="1" source="3pwNJCAhdrO7_ArIFokz-1" target="iTp6Qkr-tG074nf6BBxL-1">
          <mxGeometry relative="1" as="geometry" />
        </mxCell>
        <mxCell id="3pwNJCAhdrO7_ArIFokz-1" value="Window" style="swimlane;fontStyle=0;align=center;verticalAlign=top;childLayout=stackLayout;horizontal=1;startSize=26;horizontalStack=0;resizeParent=1;resizeLast=0;collapsible=1;marginBottom=0;rounded=0;shadow=0;strokeWidth=1;" vertex="1" parent="1">
          <mxGeometry x="502" y="115" width="159.5" height="164" as="geometry">
            <mxRectangle x="502" y="115" width="160" height="26" as="alternateBounds" />
          </mxGeometry>
        </mxCell>
        <mxCell id="3pwNJCAhdrO7_ArIFokz-2" value="views: List&lt;TextView&gt;" style="text;align=left;verticalAlign=top;spacingLeft=4;spacingRight=4;overflow=hidden;rotatable=0;points=[[0,0.5],[1,0.5]];portConstraint=eastwest;" vertex="1" parent="3pwNJCAhdrO7_ArIFokz-1">
          <mxGeometry y="26" width="159.5" height="26" as="geometry" />
        </mxCell>
        <mxCell id="iTp6Qkr-tG074nf6BBxL-10" value="views: List&lt;OtherView&gt;" style="text;align=left;verticalAlign=top;spacingLeft=4;spacingRight=4;overflow=hidden;rotatable=0;points=[[0,0.5],[1,0.5]];portConstraint=eastwest;" vertex="1" parent="3pwNJCAhdrO7_ArIFokz-1">
          <mxGeometry y="52" width="159.5" height="26" as="geometry" />
        </mxCell>
        <mxCell id="3pwNJCAhdrO7_ArIFokz-3" value="" style="line;html=1;strokeWidth=1;align=left;verticalAlign=middle;spacingTop=-1;spacingLeft=3;spacingRight=3;rotatable=0;labelPosition=right;points=[];portConstraint=eastwest;" vertex="1" parent="3pwNJCAhdrO7_ArIFokz-1">
          <mxGeometry y="78" width="159.5" height="8" as="geometry" />
        </mxCell>
        <mxCell id="3pwNJCAhdrO7_ArIFokz-4" value="attach(View)" style="text;align=left;verticalAlign=top;spacingLeft=4;spacingRight=4;overflow=hidden;rotatable=0;points=[[0,0.5],[1,0.5]];portConstraint=eastwest;" vertex="1" parent="3pwNJCAhdrO7_ArIFokz-1">
          <mxGeometry y="86" width="159.5" height="26" as="geometry" />
        </mxCell>
        <mxCell id="3pwNJCAhdrO7_ArIFokz-5" value="detach(View)" style="text;align=left;verticalAlign=top;spacingLeft=4;spacingRight=4;overflow=hidden;rotatable=0;points=[[0,0.5],[1,0.5]];portConstraint=eastwest;" vertex="1" parent="3pwNJCAhdrO7_ArIFokz-1">
          <mxGeometry y="112" width="159.5" height="26" as="geometry" />
        </mxCell>
        <mxCell id="3pwNJCAhdrO7_ArIFokz-6" value="display()" style="text;align=left;verticalAlign=top;spacingLeft=4;spacingRight=4;overflow=hidden;rotatable=0;points=[[0,0.5],[1,0.5]];portConstraint=eastwest;" vertex="1" parent="3pwNJCAhdrO7_ArIFokz-1">
          <mxGeometry y="138" width="159.5" height="26" as="geometry" />
        </mxCell>
        <mxCell id="zVzabeeGuO9zUwi2U8Y--1" value="TextView" style="swimlane;fontStyle=0;align=center;verticalAlign=top;childLayout=stackLayout;horizontal=1;startSize=26;horizontalStack=0;resizeParent=1;resizeLast=0;collapsible=1;marginBottom=0;rounded=0;shadow=0;strokeWidth=1;" vertex="1" parent="1">
          <mxGeometry x="169" y="115" width="247" height="190" as="geometry">
            <mxRectangle x="224" y="115" width="160" height="26" as="alternateBounds" />
          </mxGeometry>
        </mxCell>
        <mxCell id="3Scroahd886cEfrlEKiG-3" value="Text" style="text;align=left;verticalAlign=top;spacingLeft=4;spacingRight=4;overflow=hidden;rotatable=0;points=[[0,0.5],[1,0.5]];portConstraint=eastwest;" vertex="1" parent="zVzabeeGuO9zUwi2U8Y--1">
          <mxGeometry y="26" width="247" height="26" as="geometry" />
        </mxCell>
        <mxCell id="YpZz1cXEPzVEn41XBIzN-1" value="scrollbar: bool" style="text;align=left;verticalAlign=top;spacingLeft=4;spacingRight=4;overflow=hidden;rotatable=0;points=[[0,0.5],[1,0.5]];portConstraint=eastwest;" vertex="1" parent="zVzabeeGuO9zUwi2U8Y--1">
          <mxGeometry y="52" width="247" height="26" as="geometry" />
        </mxCell>
        <mxCell id="zVzabeeGuO9zUwi2U8Y--2" value="thickBlackBorder: bool" style="text;align=left;verticalAlign=top;spacingLeft=4;spacingRight=4;overflow=hidden;rotatable=0;points=[[0,0.5],[1,0.5]];portConstraint=eastwest;" vertex="1" parent="zVzabeeGuO9zUwi2U8Y--1">
          <mxGeometry y="78" width="247" height="26" as="geometry" />
        </mxCell>
        <mxCell id="zVzabeeGuO9zUwi2U8Y--3" value="" style="line;html=1;strokeWidth=1;align=left;verticalAlign=middle;spacingTop=-1;spacingLeft=3;spacingRight=3;rotatable=0;labelPosition=right;points=[];portConstraint=eastwest;" vertex="1" parent="zVzabeeGuO9zUwi2U8Y--1">
          <mxGeometry y="104" width="247" height="8" as="geometry" />
        </mxCell>
        <mxCell id="EHANeBt5i5vVWxlNi3zi-2" value="display()" style="text;align=left;verticalAlign=top;spacingLeft=4;spacingRight=4;overflow=hidden;rotatable=0;points=[[0,0.5],[1,0.5]];portConstraint=eastwest;" vertex="1" parent="zVzabeeGuO9zUwi2U8Y--1">
          <mxGeometry y="112" width="247" height="26" as="geometry" />
        </mxCell>
        <mxCell id="FymeK4wUVdrj_E6zbugq-1" value="setScrollbar(scrollbar: bool)" style="text;align=left;verticalAlign=top;spacingLeft=4;spacingRight=4;overflow=hidden;rotatable=0;points=[[0,0.5],[1,0.5]];portConstraint=eastwest;" vertex="1" parent="zVzabeeGuO9zUwi2U8Y--1">
          <mxGeometry y="138" width="247" height="26" as="geometry" />
        </mxCell>
        <mxCell id="zVzabeeGuO9zUwi2U8Y--4" value="setThickBlackBorder(thickBlackBorder: bool)" style="text;align=left;verticalAlign=top;spacingLeft=4;spacingRight=4;overflow=hidden;rotatable=0;points=[[0,0.5],[1,0.5]];portConstraint=eastwest;" vertex="1" parent="zVzabeeGuO9zUwi2U8Y--1">
          <mxGeometry y="164" width="247" height="26" as="geometry" />
        </mxCell>
        <mxCell id="iTp6Qkr-tG074nf6BBxL-1" value="OtherView" style="swimlane;fontStyle=0;align=center;verticalAlign=top;childLayout=stackLayout;horizontal=1;startSize=26;horizontalStack=0;resizeParent=1;resizeLast=0;collapsible=1;marginBottom=0;rounded=0;shadow=0;strokeWidth=1;" vertex="1" parent="1">
          <mxGeometry x="169" y="337" width="247" height="190" as="geometry">
            <mxRectangle x="169" y="337" width="160" height="26" as="alternateBounds" />
          </mxGeometry>
        </mxCell>
        <mxCell id="iTp6Qkr-tG074nf6BBxL-2" value="Text" style="text;align=left;verticalAlign=top;spacingLeft=4;spacingRight=4;overflow=hidden;rotatable=0;points=[[0,0.5],[1,0.5]];portConstraint=eastwest;" vertex="1" parent="iTp6Qkr-tG074nf6BBxL-1">
          <mxGeometry y="26" width="247" height="26" as="geometry" />
        </mxCell>
        <mxCell id="iTp6Qkr-tG074nf6BBxL-3" value="scrollbar: bool" style="text;align=left;verticalAlign=top;spacingLeft=4;spacingRight=4;overflow=hidden;rotatable=0;points=[[0,0.5],[1,0.5]];portConstraint=eastwest;" vertex="1" parent="iTp6Qkr-tG074nf6BBxL-1">
          <mxGeometry y="52" width="247" height="26" as="geometry" />
        </mxCell>
        <mxCell id="iTp6Qkr-tG074nf6BBxL-4" value="thickBlackBorder: bool" style="text;align=left;verticalAlign=top;spacingLeft=4;spacingRight=4;overflow=hidden;rotatable=0;points=[[0,0.5],[1,0.5]];portConstraint=eastwest;" vertex="1" parent="iTp6Qkr-tG074nf6BBxL-1">
          <mxGeometry y="78" width="247" height="26" as="geometry" />
        </mxCell>
        <mxCell id="iTp6Qkr-tG074nf6BBxL-5" value="" style="line;html=1;strokeWidth=1;align=left;verticalAlign=middle;spacingTop=-1;spacingLeft=3;spacingRight=3;rotatable=0;labelPosition=right;points=[];portConstraint=eastwest;" vertex="1" parent="iTp6Qkr-tG074nf6BBxL-1">
          <mxGeometry y="104" width="247" height="8" as="geometry" />
        </mxCell>
        <mxCell id="iTp6Qkr-tG074nf6BBxL-6" value="display()" style="text;align=left;verticalAlign=top;spacingLeft=4;spacingRight=4;overflow=hidden;rotatable=0;points=[[0,0.5],[1,0.5]];portConstraint=eastwest;" vertex="1" parent="iTp6Qkr-tG074nf6BBxL-1">
          <mxGeometry y="112" width="247" height="26" as="geometry" />
        </mxCell>
        <mxCell id="iTp6Qkr-tG074nf6BBxL-7" value="setScrollbar(scrollbar: bool)" style="text;align=left;verticalAlign=top;spacingLeft=4;spacingRight=4;overflow=hidden;rotatable=0;points=[[0,0.5],[1,0.5]];portConstraint=eastwest;" vertex="1" parent="iTp6Qkr-tG074nf6BBxL-1">
          <mxGeometry y="138" width="247" height="26" as="geometry" />
        </mxCell>
        <mxCell id="iTp6Qkr-tG074nf6BBxL-8" value="setThickBlackBorder(thickBlackBorder: bool)" style="text;align=left;verticalAlign=top;spacingLeft=4;spacingRight=4;overflow=hidden;rotatable=0;points=[[0,0.5],[1,0.5]];portConstraint=eastwest;" vertex="1" parent="iTp6Qkr-tG074nf6BBxL-1">
          <mxGeometry y="164" width="247" height="26" as="geometry" />
        </mxCell>
      </root>
    </mxGraphModel>
  </diagram>
</mxfile>
